<mxfile host="app.diagrams.net" modified="2024-05-16T08:26:49.998Z" agent="Mozilla/5.0 (Windows NT 10.0; Win64; x64; rv:126.0) Gecko/20100101 Firefox/126.0" etag="g3p3AgojIu6_az_U7znh" version="24.4.0" type="github">
  <diagram name="Page-1" id="2I7DdGbJXhCYlDD_JK5G">
    <mxGraphModel dx="2234" dy="1324" grid="1" gridSize="10" guides="1" tooltips="1" connect="1" arrows="1" fold="1" page="0" pageScale="1" pageWidth="827" pageHeight="1169" math="0" shadow="0">
      <root>
        <mxCell id="0" />
        <mxCell id="1" parent="0" />
        <mxCell id="2D-d_SrLqzteHeUCmjBP-1" value="ABBYY FRE 12" style="rounded=1;whiteSpace=wrap;html=1;strokeColor=#042a60;strokeWidth=3;arcSize=15;fontFamily=Poppins;fontSource=https%3A%2F%2Ffonts.googleapis.com%2Fcss%3Ffamily%3DPoppins;fontSize=16;fontColor=#002058;fontStyle=0;labelBackgroundColor=none;labelBorderColor=none;" vertex="1" parent="1">
          <mxGeometry x="110" y="-101" width="119.16" height="854" as="geometry" />
        </mxCell>
        <mxCell id="2D-d_SrLqzteHeUCmjBP-74" style="edgeStyle=none;curved=1;rounded=0;orthogonalLoop=1;jettySize=auto;html=1;entryX=1;entryY=0.5;entryDx=0;entryDy=0;fontSize=12;startSize=8;endSize=8;" edge="1" parent="1" target="2D-d_SrLqzteHeUCmjBP-73">
          <mxGeometry relative="1" as="geometry">
            <mxPoint x="-3" y="148" as="sourcePoint" />
          </mxGeometry>
        </mxCell>
        <mxCell id="2D-d_SrLqzteHeUCmjBP-126" style="edgeStyle=none;curved=1;rounded=0;orthogonalLoop=1;jettySize=auto;html=1;entryX=1;entryY=0.5;entryDx=0;entryDy=0;fontSize=12;startSize=8;endSize=8;exitX=0.02;exitY=0.91;exitDx=0;exitDy=0;exitPerimeter=0;" edge="1" parent="1" target="2D-d_SrLqzteHeUCmjBP-125">
          <mxGeometry relative="1" as="geometry">
            <mxPoint x="-3.020000000000036" y="603.9999999999999" as="sourcePoint" />
            <mxPoint x="-151.002" y="604.13" as="targetPoint" />
          </mxGeometry>
        </mxCell>
        <mxCell id="2D-d_SrLqzteHeUCmjBP-2" value="Connecteur ABBYY" style="rounded=1;whiteSpace=wrap;html=1;strokeColor=#0095db;strokeWidth=3;arcSize=15;fontFamily=Poppins;fontSource=https%3A%2F%2Ffonts.googleapis.com%2Fcss%3Ffamily%3DPoppins;fontSize=16;fontColor=#002058;fontStyle=0" vertex="1" parent="1">
          <mxGeometry x="-1" y="-104" width="102" height="857" as="geometry" />
        </mxCell>
        <mxCell id="2D-d_SrLqzteHeUCmjBP-3" value="Jeu d&#39;entrainement" style="rounded=1;whiteSpace=wrap;html=1;strokeColor=#0095db;strokeWidth=3;arcSize=15;fontFamily=Cascadia code;fontSource=https%3A%2F%2Ffonts.googleapis.com%2Fcss%3Ffamily%3DCascadia%2Bcode;fontSize=16;fontColor=#002058;fontStyle=0" vertex="1" parent="1">
          <mxGeometry x="-424" y="-160" width="274" height="49" as="geometry" />
        </mxCell>
        <mxCell id="2D-d_SrLqzteHeUCmjBP-49" value="" style="shape=table;startSize=0;container=1;collapsible=0;childLayout=tableLayout;" vertex="1" parent="1">
          <mxGeometry x="-424" y="-104" width="274" height="182" as="geometry" />
        </mxCell>
        <mxCell id="2D-d_SrLqzteHeUCmjBP-50" value="" style="shape=tableRow;horizontal=0;startSize=0;swimlaneHead=0;swimlaneBody=0;strokeColor=inherit;top=0;left=0;bottom=0;right=0;collapsible=0;dropTarget=0;fillColor=none;points=[[0,0.5],[1,0.5]];portConstraint=eastwest;" vertex="1" parent="2D-d_SrLqzteHeUCmjBP-49">
          <mxGeometry width="274" height="27" as="geometry" />
        </mxCell>
        <mxCell id="2D-d_SrLqzteHeUCmjBP-51" value="Fichier" style="shape=partialRectangle;html=1;whiteSpace=wrap;connectable=0;strokeColor=#6c8ebf;overflow=hidden;fillColor=#dae8fc;top=0;left=0;bottom=0;right=0;pointerEvents=1;" vertex="1" parent="2D-d_SrLqzteHeUCmjBP-50">
          <mxGeometry width="138" height="27" as="geometry">
            <mxRectangle width="138" height="27" as="alternateBounds" />
          </mxGeometry>
        </mxCell>
        <mxCell id="2D-d_SrLqzteHeUCmjBP-52" value="CatÃ©gorie" style="shape=partialRectangle;html=1;whiteSpace=wrap;connectable=0;strokeColor=#6c8ebf;overflow=hidden;fillColor=#dae8fc;top=0;left=0;bottom=0;right=0;pointerEvents=1;" vertex="1" parent="2D-d_SrLqzteHeUCmjBP-50">
          <mxGeometry x="138" width="136" height="27" as="geometry">
            <mxRectangle width="136" height="27" as="alternateBounds" />
          </mxGeometry>
        </mxCell>
        <mxCell id="2D-d_SrLqzteHeUCmjBP-53" value="" style="shape=tableRow;horizontal=0;startSize=0;swimlaneHead=0;swimlaneBody=0;strokeColor=inherit;top=0;left=0;bottom=0;right=0;collapsible=0;dropTarget=0;fillColor=none;points=[[0,0.5],[1,0.5]];portConstraint=eastwest;" vertex="1" parent="2D-d_SrLqzteHeUCmjBP-49">
          <mxGeometry y="27" width="274" height="25" as="geometry" />
        </mxCell>
        <mxCell id="2D-d_SrLqzteHeUCmjBP-54" value="document1.pdf" style="shape=partialRectangle;html=1;whiteSpace=wrap;connectable=0;strokeColor=inherit;overflow=hidden;fillColor=none;top=0;left=0;bottom=0;right=0;pointerEvents=1;" vertex="1" parent="2D-d_SrLqzteHeUCmjBP-53">
          <mxGeometry width="138" height="25" as="geometry">
            <mxRectangle width="138" height="25" as="alternateBounds" />
          </mxGeometry>
        </mxCell>
        <mxCell id="2D-d_SrLqzteHeUCmjBP-55" value="CONTRAT" style="shape=partialRectangle;html=1;whiteSpace=wrap;connectable=0;strokeColor=inherit;overflow=hidden;fillColor=none;top=0;left=0;bottom=0;right=0;pointerEvents=1;" vertex="1" parent="2D-d_SrLqzteHeUCmjBP-53">
          <mxGeometry x="138" width="136" height="25" as="geometry">
            <mxRectangle width="136" height="25" as="alternateBounds" />
          </mxGeometry>
        </mxCell>
        <mxCell id="2D-d_SrLqzteHeUCmjBP-56" value="" style="shape=tableRow;horizontal=0;startSize=0;swimlaneHead=0;swimlaneBody=0;strokeColor=inherit;top=0;left=0;bottom=0;right=0;collapsible=0;dropTarget=0;fillColor=none;points=[[0,0.5],[1,0.5]];portConstraint=eastwest;" vertex="1" parent="2D-d_SrLqzteHeUCmjBP-49">
          <mxGeometry y="52" width="274" height="27" as="geometry" />
        </mxCell>
        <mxCell id="2D-d_SrLqzteHeUCmjBP-57" value="document2.png" style="shape=partialRectangle;html=1;whiteSpace=wrap;connectable=0;strokeColor=inherit;overflow=hidden;fillColor=none;top=0;left=0;bottom=0;right=0;pointerEvents=1;" vertex="1" parent="2D-d_SrLqzteHeUCmjBP-56">
          <mxGeometry width="138" height="27" as="geometry">
            <mxRectangle width="138" height="27" as="alternateBounds" />
          </mxGeometry>
        </mxCell>
        <mxCell id="2D-d_SrLqzteHeUCmjBP-58" value="CONTRAT" style="shape=partialRectangle;html=1;whiteSpace=wrap;connectable=0;strokeColor=inherit;overflow=hidden;fillColor=none;top=0;left=0;bottom=0;right=0;pointerEvents=1;" vertex="1" parent="2D-d_SrLqzteHeUCmjBP-56">
          <mxGeometry x="138" width="136" height="27" as="geometry">
            <mxRectangle width="136" height="27" as="alternateBounds" />
          </mxGeometry>
        </mxCell>
        <mxCell id="2D-d_SrLqzteHeUCmjBP-59" value="" style="shape=tableRow;horizontal=0;startSize=0;swimlaneHead=0;swimlaneBody=0;strokeColor=inherit;top=0;left=0;bottom=0;right=0;collapsible=0;dropTarget=0;fillColor=none;points=[[0,0.5],[1,0.5]];portConstraint=eastwest;" vertex="1" parent="2D-d_SrLqzteHeUCmjBP-49">
          <mxGeometry y="79" width="274" height="24" as="geometry" />
        </mxCell>
        <mxCell id="2D-d_SrLqzteHeUCmjBP-60" value="document3.jpg" style="shape=partialRectangle;html=1;whiteSpace=wrap;connectable=0;strokeColor=inherit;overflow=hidden;fillColor=none;top=0;left=0;bottom=0;right=0;pointerEvents=1;" vertex="1" parent="2D-d_SrLqzteHeUCmjBP-59">
          <mxGeometry width="138" height="24" as="geometry">
            <mxRectangle width="138" height="24" as="alternateBounds" />
          </mxGeometry>
        </mxCell>
        <mxCell id="2D-d_SrLqzteHeUCmjBP-61" value="CONTRAT" style="shape=partialRectangle;html=1;whiteSpace=wrap;connectable=0;strokeColor=inherit;overflow=hidden;fillColor=none;top=0;left=0;bottom=0;right=0;pointerEvents=1;" vertex="1" parent="2D-d_SrLqzteHeUCmjBP-59">
          <mxGeometry x="138" width="136" height="24" as="geometry">
            <mxRectangle width="136" height="24" as="alternateBounds" />
          </mxGeometry>
        </mxCell>
        <mxCell id="2D-d_SrLqzteHeUCmjBP-62" value="" style="shape=tableRow;horizontal=0;startSize=0;swimlaneHead=0;swimlaneBody=0;strokeColor=inherit;top=0;left=0;bottom=0;right=0;collapsible=0;dropTarget=0;fillColor=none;points=[[0,0.5],[1,0.5]];portConstraint=eastwest;" vertex="1" parent="2D-d_SrLqzteHeUCmjBP-49">
          <mxGeometry y="103" width="274" height="27" as="geometry" />
        </mxCell>
        <mxCell id="2D-d_SrLqzteHeUCmjBP-63" value="document4.pdf" style="shape=partialRectangle;html=1;whiteSpace=wrap;connectable=0;strokeColor=inherit;overflow=hidden;fillColor=none;top=0;left=0;bottom=0;right=0;pointerEvents=1;" vertex="1" parent="2D-d_SrLqzteHeUCmjBP-62">
          <mxGeometry width="138" height="27" as="geometry">
            <mxRectangle width="138" height="27" as="alternateBounds" />
          </mxGeometry>
        </mxCell>
        <mxCell id="2D-d_SrLqzteHeUCmjBP-64" value="FACTURE" style="shape=partialRectangle;html=1;whiteSpace=wrap;connectable=0;strokeColor=inherit;overflow=hidden;fillColor=none;top=0;left=0;bottom=0;right=0;pointerEvents=1;" vertex="1" parent="2D-d_SrLqzteHeUCmjBP-62">
          <mxGeometry x="138" width="136" height="27" as="geometry">
            <mxRectangle width="136" height="27" as="alternateBounds" />
          </mxGeometry>
        </mxCell>
        <mxCell id="2D-d_SrLqzteHeUCmjBP-65" value="" style="shape=tableRow;horizontal=0;startSize=0;swimlaneHead=0;swimlaneBody=0;strokeColor=inherit;top=0;left=0;bottom=0;right=0;collapsible=0;dropTarget=0;fillColor=none;points=[[0,0.5],[1,0.5]];portConstraint=eastwest;" vertex="1" parent="2D-d_SrLqzteHeUCmjBP-49">
          <mxGeometry y="130" width="274" height="25" as="geometry" />
        </mxCell>
        <mxCell id="2D-d_SrLqzteHeUCmjBP-66" value="document5.pdf" style="shape=partialRectangle;html=1;whiteSpace=wrap;connectable=0;strokeColor=inherit;overflow=hidden;fillColor=none;top=0;left=0;bottom=0;right=0;pointerEvents=1;" vertex="1" parent="2D-d_SrLqzteHeUCmjBP-65">
          <mxGeometry width="138" height="25" as="geometry">
            <mxRectangle width="138" height="25" as="alternateBounds" />
          </mxGeometry>
        </mxCell>
        <mxCell id="2D-d_SrLqzteHeUCmjBP-67" value="FACTURE" style="shape=partialRectangle;html=1;whiteSpace=wrap;connectable=0;strokeColor=inherit;overflow=hidden;fillColor=none;top=0;left=0;bottom=0;right=0;pointerEvents=1;" vertex="1" parent="2D-d_SrLqzteHeUCmjBP-65">
          <mxGeometry x="138" width="136" height="25" as="geometry">
            <mxRectangle width="136" height="25" as="alternateBounds" />
          </mxGeometry>
        </mxCell>
        <mxCell id="2D-d_SrLqzteHeUCmjBP-68" value="" style="shape=tableRow;horizontal=0;startSize=0;swimlaneHead=0;swimlaneBody=0;strokeColor=inherit;top=0;left=0;bottom=0;right=0;collapsible=0;dropTarget=0;fillColor=none;points=[[0,0.5],[1,0.5]];portConstraint=eastwest;" vertex="1" parent="2D-d_SrLqzteHeUCmjBP-49">
          <mxGeometry y="155" width="274" height="27" as="geometry" />
        </mxCell>
        <mxCell id="2D-d_SrLqzteHeUCmjBP-69" value="..." style="shape=partialRectangle;html=1;whiteSpace=wrap;connectable=0;strokeColor=inherit;overflow=hidden;fillColor=none;top=0;left=0;bottom=0;right=0;pointerEvents=1;" vertex="1" parent="2D-d_SrLqzteHeUCmjBP-68">
          <mxGeometry width="138" height="27" as="geometry">
            <mxRectangle width="138" height="27" as="alternateBounds" />
          </mxGeometry>
        </mxCell>
        <mxCell id="2D-d_SrLqzteHeUCmjBP-70" value="..." style="shape=partialRectangle;html=1;whiteSpace=wrap;connectable=0;strokeColor=inherit;overflow=hidden;fillColor=none;top=0;left=0;bottom=0;right=0;pointerEvents=1;" vertex="1" parent="2D-d_SrLqzteHeUCmjBP-68">
          <mxGeometry x="138" width="136" height="27" as="geometry">
            <mxRectangle width="136" height="27" as="alternateBounds" />
          </mxGeometry>
        </mxCell>
        <mxCell id="2D-d_SrLqzteHeUCmjBP-71" style="edgeStyle=none;curved=1;rounded=0;orthogonalLoop=1;jettySize=auto;html=1;fontSize=12;startSize=8;endSize=8;" edge="1" parent="1">
          <mxGeometry relative="1" as="geometry">
            <mxPoint x="-149" y="-11.023080419580538" as="sourcePoint" />
            <mxPoint y="-11" as="targetPoint" />
          </mxGeometry>
        </mxCell>
        <mxCell id="2D-d_SrLqzteHeUCmjBP-72" value="train()" style="edgeLabel;html=1;align=center;verticalAlign=middle;resizable=0;points=[];fontSize=12;" vertex="1" connectable="0" parent="2D-d_SrLqzteHeUCmjBP-71">
          <mxGeometry x="0.0047" y="1" relative="1" as="geometry">
            <mxPoint as="offset" />
          </mxGeometry>
        </mxCell>
        <mxCell id="2D-d_SrLqzteHeUCmjBP-73" value="ModÃ¨le" style="rounded=1;whiteSpace=wrap;html=1;strokeColor=#0095db;strokeWidth=3;arcSize=15;fontFamily=Cascadia code;fontSource=https%3A%2F%2Ffonts.googleapis.com%2Fcss%3Ffamily%3DCascadia%2Bcode;fontSize=16;fontColor=#002058;fontStyle=0" vertex="1" parent="1">
          <mxGeometry x="-429" y="123" width="279" height="49" as="geometry" />
        </mxCell>
        <mxCell id="2D-d_SrLqzteHeUCmjBP-76" value="" style="shape=table;startSize=0;container=1;collapsible=0;childLayout=tableLayout;fillColor=default;swimlaneFillColor=#330000;" vertex="1" parent="1">
          <mxGeometry x="-429" y="236" width="278" height="130" as="geometry" />
        </mxCell>
        <mxCell id="2D-d_SrLqzteHeUCmjBP-77" value="" style="shape=tableRow;horizontal=0;startSize=0;swimlaneHead=0;swimlaneBody=0;strokeColor=inherit;top=0;left=0;bottom=0;right=0;collapsible=0;dropTarget=0;fillColor=none;points=[[0,0.5],[1,0.5]];portConstraint=eastwest;" vertex="1" parent="2D-d_SrLqzteHeUCmjBP-76">
          <mxGeometry width="278" height="33" as="geometry" />
        </mxCell>
        <mxCell id="2D-d_SrLqzteHeUCmjBP-78" value="Real/PrÃ©dicted" style="shape=partialRectangle;html=1;whiteSpace=wrap;connectable=0;strokeColor=#6c8ebf;overflow=hidden;fillColor=#dae8fc;top=0;left=0;bottom=0;right=0;pointerEvents=1;" vertex="1" parent="2D-d_SrLqzteHeUCmjBP-77">
          <mxGeometry width="71" height="33" as="geometry">
            <mxRectangle width="71" height="33" as="alternateBounds" />
          </mxGeometry>
        </mxCell>
        <mxCell id="2D-d_SrLqzteHeUCmjBP-79" value="CONTRAT" style="shape=partialRectangle;html=1;whiteSpace=wrap;connectable=0;strokeColor=inherit;overflow=hidden;fillColor=none;top=0;left=0;bottom=0;right=0;pointerEvents=1;" vertex="1" parent="2D-d_SrLqzteHeUCmjBP-77">
          <mxGeometry x="71" width="69" height="33" as="geometry">
            <mxRectangle width="69" height="33" as="alternateBounds" />
          </mxGeometry>
        </mxCell>
        <mxCell id="2D-d_SrLqzteHeUCmjBP-80" value="FACTURE" style="shape=partialRectangle;html=1;whiteSpace=wrap;connectable=0;strokeColor=inherit;overflow=hidden;fillColor=none;top=0;left=0;bottom=0;right=0;pointerEvents=1;" vertex="1" parent="2D-d_SrLqzteHeUCmjBP-77">
          <mxGeometry x="140" width="70" height="33" as="geometry">
            <mxRectangle width="70" height="33" as="alternateBounds" />
          </mxGeometry>
        </mxCell>
        <mxCell id="2D-d_SrLqzteHeUCmjBP-81" value="..." style="shape=partialRectangle;html=1;whiteSpace=wrap;connectable=0;strokeColor=inherit;overflow=hidden;fillColor=none;top=0;left=0;bottom=0;right=0;pointerEvents=1;" vertex="1" parent="2D-d_SrLqzteHeUCmjBP-77">
          <mxGeometry x="210" width="68" height="33" as="geometry">
            <mxRectangle width="68" height="33" as="alternateBounds" />
          </mxGeometry>
        </mxCell>
        <mxCell id="2D-d_SrLqzteHeUCmjBP-82" value="" style="shape=tableRow;horizontal=0;startSize=0;swimlaneHead=0;swimlaneBody=0;strokeColor=inherit;top=0;left=0;bottom=0;right=0;collapsible=0;dropTarget=0;fillColor=none;points=[[0,0.5],[1,0.5]];portConstraint=eastwest;" vertex="1" parent="2D-d_SrLqzteHeUCmjBP-76">
          <mxGeometry y="33" width="278" height="33" as="geometry" />
        </mxCell>
        <mxCell id="2D-d_SrLqzteHeUCmjBP-83" value="CONTRAT" style="shape=partialRectangle;html=1;whiteSpace=wrap;connectable=0;strokeColor=inherit;overflow=hidden;fillColor=none;top=0;left=0;bottom=0;right=0;pointerEvents=1;" vertex="1" parent="2D-d_SrLqzteHeUCmjBP-82">
          <mxGeometry width="71" height="33" as="geometry">
            <mxRectangle width="71" height="33" as="alternateBounds" />
          </mxGeometry>
        </mxCell>
        <mxCell id="2D-d_SrLqzteHeUCmjBP-84" value="5" style="shape=partialRectangle;html=1;whiteSpace=wrap;connectable=0;strokeColor=default;overflow=hidden;fillColor=#d5e8d4;top=0;left=0;bottom=0;right=0;pointerEvents=1;perimeterSpacing=1;shadow=1;" vertex="1" parent="2D-d_SrLqzteHeUCmjBP-82">
          <mxGeometry x="71" width="69" height="33" as="geometry">
            <mxRectangle width="69" height="33" as="alternateBounds" />
          </mxGeometry>
        </mxCell>
        <mxCell id="2D-d_SrLqzteHeUCmjBP-85" value="" style="shape=partialRectangle;html=1;whiteSpace=wrap;connectable=0;strokeColor=inherit;overflow=hidden;fillColor=none;top=0;left=0;bottom=0;right=0;pointerEvents=1;" vertex="1" parent="2D-d_SrLqzteHeUCmjBP-82">
          <mxGeometry x="140" width="70" height="33" as="geometry">
            <mxRectangle width="70" height="33" as="alternateBounds" />
          </mxGeometry>
        </mxCell>
        <mxCell id="2D-d_SrLqzteHeUCmjBP-86" value="" style="shape=partialRectangle;html=1;whiteSpace=wrap;connectable=0;strokeColor=inherit;overflow=hidden;fillColor=none;top=0;left=0;bottom=0;right=0;pointerEvents=1;" vertex="1" parent="2D-d_SrLqzteHeUCmjBP-82">
          <mxGeometry x="210" width="68" height="33" as="geometry">
            <mxRectangle width="68" height="33" as="alternateBounds" />
          </mxGeometry>
        </mxCell>
        <mxCell id="2D-d_SrLqzteHeUCmjBP-87" value="" style="shape=tableRow;horizontal=0;startSize=0;swimlaneHead=0;swimlaneBody=0;strokeColor=inherit;top=0;left=0;bottom=0;right=0;collapsible=0;dropTarget=0;fillColor=none;points=[[0,0.5],[1,0.5]];portConstraint=eastwest;" vertex="1" parent="2D-d_SrLqzteHeUCmjBP-76">
          <mxGeometry y="66" width="278" height="32" as="geometry" />
        </mxCell>
        <mxCell id="2D-d_SrLqzteHeUCmjBP-88" value="FACTURE" style="shape=partialRectangle;html=1;whiteSpace=wrap;connectable=0;strokeColor=inherit;overflow=hidden;fillColor=none;top=0;left=0;bottom=0;right=0;pointerEvents=1;" vertex="1" parent="2D-d_SrLqzteHeUCmjBP-87">
          <mxGeometry width="71" height="32" as="geometry">
            <mxRectangle width="71" height="32" as="alternateBounds" />
          </mxGeometry>
        </mxCell>
        <mxCell id="2D-d_SrLqzteHeUCmjBP-89" value="1" style="shape=partialRectangle;html=1;whiteSpace=wrap;connectable=0;strokeColor=#d79b00;overflow=hidden;fillColor=#ffe6cc;top=0;left=0;bottom=0;right=0;pointerEvents=1;" vertex="1" parent="2D-d_SrLqzteHeUCmjBP-87">
          <mxGeometry x="71" width="69" height="32" as="geometry">
            <mxRectangle width="69" height="32" as="alternateBounds" />
          </mxGeometry>
        </mxCell>
        <mxCell id="2D-d_SrLqzteHeUCmjBP-90" value="4" style="shape=partialRectangle;html=1;whiteSpace=wrap;connectable=0;strokeColor=#82b366;overflow=hidden;fillColor=#d5e8d4;top=0;left=0;bottom=0;right=0;pointerEvents=1;" vertex="1" parent="2D-d_SrLqzteHeUCmjBP-87">
          <mxGeometry x="140" width="70" height="32" as="geometry">
            <mxRectangle width="70" height="32" as="alternateBounds" />
          </mxGeometry>
        </mxCell>
        <mxCell id="2D-d_SrLqzteHeUCmjBP-91" value="" style="shape=partialRectangle;html=1;whiteSpace=wrap;connectable=0;strokeColor=inherit;overflow=hidden;fillColor=none;top=0;left=0;bottom=0;right=0;pointerEvents=1;" vertex="1" parent="2D-d_SrLqzteHeUCmjBP-87">
          <mxGeometry x="210" width="68" height="32" as="geometry">
            <mxRectangle width="68" height="32" as="alternateBounds" />
          </mxGeometry>
        </mxCell>
        <mxCell id="2D-d_SrLqzteHeUCmjBP-92" value="" style="shape=tableRow;horizontal=0;startSize=0;swimlaneHead=0;swimlaneBody=0;strokeColor=inherit;top=0;left=0;bottom=0;right=0;collapsible=0;dropTarget=0;fillColor=none;points=[[0,0.5],[1,0.5]];portConstraint=eastwest;" vertex="1" parent="2D-d_SrLqzteHeUCmjBP-76">
          <mxGeometry y="98" width="278" height="32" as="geometry" />
        </mxCell>
        <mxCell id="2D-d_SrLqzteHeUCmjBP-93" value="..." style="shape=partialRectangle;html=1;whiteSpace=wrap;connectable=0;strokeColor=inherit;overflow=hidden;fillColor=none;top=0;left=0;bottom=0;right=0;pointerEvents=1;" vertex="1" parent="2D-d_SrLqzteHeUCmjBP-92">
          <mxGeometry width="71" height="32" as="geometry">
            <mxRectangle width="71" height="32" as="alternateBounds" />
          </mxGeometry>
        </mxCell>
        <mxCell id="2D-d_SrLqzteHeUCmjBP-94" value="" style="shape=partialRectangle;html=1;whiteSpace=wrap;connectable=0;strokeColor=inherit;overflow=hidden;fillColor=none;top=0;left=0;bottom=0;right=0;pointerEvents=1;" vertex="1" parent="2D-d_SrLqzteHeUCmjBP-92">
          <mxGeometry x="71" width="69" height="32" as="geometry">
            <mxRectangle width="69" height="32" as="alternateBounds" />
          </mxGeometry>
        </mxCell>
        <mxCell id="2D-d_SrLqzteHeUCmjBP-95" value="" style="shape=partialRectangle;html=1;whiteSpace=wrap;connectable=0;strokeColor=inherit;overflow=hidden;fillColor=none;top=0;left=0;bottom=0;right=0;pointerEvents=1;" vertex="1" parent="2D-d_SrLqzteHeUCmjBP-92">
          <mxGeometry x="140" width="70" height="32" as="geometry">
            <mxRectangle width="70" height="32" as="alternateBounds" />
          </mxGeometry>
        </mxCell>
        <mxCell id="2D-d_SrLqzteHeUCmjBP-96" value="" style="shape=partialRectangle;html=1;whiteSpace=wrap;connectable=0;strokeColor=#82b366;overflow=hidden;fillColor=#d5e8d4;top=0;left=0;bottom=0;right=0;pointerEvents=1;" vertex="1" parent="2D-d_SrLqzteHeUCmjBP-92">
          <mxGeometry x="210" width="68" height="32" as="geometry">
            <mxRectangle width="68" height="32" as="alternateBounds" />
          </mxGeometry>
        </mxCell>
        <mxCell id="2D-d_SrLqzteHeUCmjBP-97" value="Evaluation (matrice + score)" style="rounded=1;whiteSpace=wrap;html=1;strokeColor=#0095db;strokeWidth=3;arcSize=15;fontFamily=Cascadia code;fontSource=https%3A%2F%2Ffonts.googleapis.com%2Fcss%3Ffamily%3DCascadia%2Bcode;fontSize=16;fontColor=#002058;fontStyle=0;dashed=1;" vertex="1" parent="1">
          <mxGeometry x="-429" y="174" width="278" height="49" as="geometry" />
        </mxCell>
        <mxCell id="2D-d_SrLqzteHeUCmjBP-100" value="document.png" style="sketch=0;outlineConnect=0;fontColor=#232F3E;gradientColor=none;fillColor=#ED7100;strokeColor=none;dashed=0;verticalLabelPosition=bottom;verticalAlign=top;align=center;html=1;fontSize=12;fontStyle=0;aspect=fixed;pointerEvents=1;shape=mxgraph.aws4.container_registry_image;" vertex="1" parent="1">
          <mxGeometry x="-240" y="429" width="86" height="86" as="geometry" />
        </mxCell>
        <mxCell id="2D-d_SrLqzteHeUCmjBP-101" style="edgeStyle=none;curved=1;rounded=0;orthogonalLoop=1;jettySize=auto;html=1;entryX=0;entryY=0.674;entryDx=0;entryDy=0;entryPerimeter=0;fontSize=12;startSize=8;endSize=8;" edge="1" parent="1" source="2D-d_SrLqzteHeUCmjBP-100" target="2D-d_SrLqzteHeUCmjBP-2">
          <mxGeometry relative="1" as="geometry" />
        </mxCell>
        <mxCell id="2D-d_SrLqzteHeUCmjBP-102" value="classify()" style="edgeLabel;html=1;align=center;verticalAlign=middle;resizable=0;points=[];fontSize=12;" vertex="1" connectable="0" parent="2D-d_SrLqzteHeUCmjBP-101">
          <mxGeometry x="0.195" y="1" relative="1" as="geometry">
            <mxPoint x="-8" as="offset" />
          </mxGeometry>
        </mxCell>
        <mxCell id="2D-d_SrLqzteHeUCmjBP-103" value="" style="shape=table;startSize=0;container=1;collapsible=0;childLayout=tableLayout;" vertex="1" parent="1">
          <mxGeometry x="-426.5" y="629" width="279" height="103" as="geometry" />
        </mxCell>
        <mxCell id="2D-d_SrLqzteHeUCmjBP-104" value="" style="shape=tableRow;horizontal=0;startSize=0;swimlaneHead=0;swimlaneBody=0;strokeColor=inherit;top=0;left=0;bottom=0;right=0;collapsible=0;dropTarget=0;fillColor=none;points=[[0,0.5],[1,0.5]];portConstraint=eastwest;" vertex="1" parent="2D-d_SrLqzteHeUCmjBP-103">
          <mxGeometry width="279" height="27" as="geometry" />
        </mxCell>
        <mxCell id="2D-d_SrLqzteHeUCmjBP-105" value="CatÃ©gorie" style="shape=partialRectangle;html=1;whiteSpace=wrap;connectable=0;strokeColor=#6c8ebf;overflow=hidden;fillColor=#dae8fc;top=0;left=0;bottom=0;right=0;pointerEvents=1;" vertex="1" parent="2D-d_SrLqzteHeUCmjBP-104">
          <mxGeometry width="141" height="27" as="geometry">
            <mxRectangle width="141" height="27" as="alternateBounds" />
          </mxGeometry>
        </mxCell>
        <mxCell id="2D-d_SrLqzteHeUCmjBP-106" value="Pourcentage" style="shape=partialRectangle;html=1;whiteSpace=wrap;connectable=0;strokeColor=#6c8ebf;overflow=hidden;fillColor=#dae8fc;top=0;left=0;bottom=0;right=0;pointerEvents=1;" vertex="1" parent="2D-d_SrLqzteHeUCmjBP-104">
          <mxGeometry x="141" width="138" height="27" as="geometry">
            <mxRectangle width="138" height="27" as="alternateBounds" />
          </mxGeometry>
        </mxCell>
        <mxCell id="2D-d_SrLqzteHeUCmjBP-107" value="" style="shape=tableRow;horizontal=0;startSize=0;swimlaneHead=0;swimlaneBody=0;strokeColor=inherit;top=0;left=0;bottom=0;right=0;collapsible=0;dropTarget=0;fillColor=none;points=[[0,0.5],[1,0.5]];portConstraint=eastwest;" vertex="1" parent="2D-d_SrLqzteHeUCmjBP-103">
          <mxGeometry y="27" width="279" height="25" as="geometry" />
        </mxCell>
        <mxCell id="2D-d_SrLqzteHeUCmjBP-108" value="CONTRAT" style="shape=partialRectangle;html=1;whiteSpace=wrap;connectable=0;strokeColor=inherit;overflow=hidden;fillColor=none;top=0;left=0;bottom=0;right=0;pointerEvents=1;" vertex="1" parent="2D-d_SrLqzteHeUCmjBP-107">
          <mxGeometry width="141" height="25" as="geometry">
            <mxRectangle width="141" height="25" as="alternateBounds" />
          </mxGeometry>
        </mxCell>
        <mxCell id="2D-d_SrLqzteHeUCmjBP-109" value="85,3%" style="shape=partialRectangle;html=1;whiteSpace=wrap;connectable=0;strokeColor=inherit;overflow=hidden;fillColor=none;top=0;left=0;bottom=0;right=0;pointerEvents=1;" vertex="1" parent="2D-d_SrLqzteHeUCmjBP-107">
          <mxGeometry x="141" width="138" height="25" as="geometry">
            <mxRectangle width="138" height="25" as="alternateBounds" />
          </mxGeometry>
        </mxCell>
        <mxCell id="2D-d_SrLqzteHeUCmjBP-110" value="" style="shape=tableRow;horizontal=0;startSize=0;swimlaneHead=0;swimlaneBody=0;strokeColor=inherit;top=0;left=0;bottom=0;right=0;collapsible=0;dropTarget=0;fillColor=none;points=[[0,0.5],[1,0.5]];portConstraint=eastwest;" vertex="1" parent="2D-d_SrLqzteHeUCmjBP-103">
          <mxGeometry y="52" width="279" height="27" as="geometry" />
        </mxCell>
        <mxCell id="2D-d_SrLqzteHeUCmjBP-111" value="FACTURE" style="shape=partialRectangle;html=1;whiteSpace=wrap;connectable=0;strokeColor=inherit;overflow=hidden;fillColor=none;top=0;left=0;bottom=0;right=0;pointerEvents=1;" vertex="1" parent="2D-d_SrLqzteHeUCmjBP-110">
          <mxGeometry width="141" height="27" as="geometry">
            <mxRectangle width="141" height="27" as="alternateBounds" />
          </mxGeometry>
        </mxCell>
        <mxCell id="2D-d_SrLqzteHeUCmjBP-112" value="10,5%" style="shape=partialRectangle;html=1;whiteSpace=wrap;connectable=0;strokeColor=inherit;overflow=hidden;fillColor=none;top=0;left=0;bottom=0;right=0;pointerEvents=1;" vertex="1" parent="2D-d_SrLqzteHeUCmjBP-110">
          <mxGeometry x="141" width="138" height="27" as="geometry">
            <mxRectangle width="138" height="27" as="alternateBounds" />
          </mxGeometry>
        </mxCell>
        <mxCell id="2D-d_SrLqzteHeUCmjBP-113" value="" style="shape=tableRow;horizontal=0;startSize=0;swimlaneHead=0;swimlaneBody=0;strokeColor=inherit;top=0;left=0;bottom=0;right=0;collapsible=0;dropTarget=0;fillColor=none;points=[[0,0.5],[1,0.5]];portConstraint=eastwest;" vertex="1" parent="2D-d_SrLqzteHeUCmjBP-103">
          <mxGeometry y="79" width="279" height="24" as="geometry" />
        </mxCell>
        <mxCell id="2D-d_SrLqzteHeUCmjBP-114" value="..." style="shape=partialRectangle;html=1;whiteSpace=wrap;connectable=0;strokeColor=inherit;overflow=hidden;fillColor=none;top=0;left=0;bottom=0;right=0;pointerEvents=1;" vertex="1" parent="2D-d_SrLqzteHeUCmjBP-113">
          <mxGeometry width="141" height="24" as="geometry">
            <mxRectangle width="141" height="24" as="alternateBounds" />
          </mxGeometry>
        </mxCell>
        <mxCell id="2D-d_SrLqzteHeUCmjBP-115" value="..." style="shape=partialRectangle;html=1;whiteSpace=wrap;connectable=0;strokeColor=inherit;overflow=hidden;fillColor=none;top=0;left=0;bottom=0;right=0;pointerEvents=1;" vertex="1" parent="2D-d_SrLqzteHeUCmjBP-113">
          <mxGeometry x="141" width="138" height="24" as="geometry">
            <mxRectangle width="138" height="24" as="alternateBounds" />
          </mxGeometry>
        </mxCell>
        <mxCell id="2D-d_SrLqzteHeUCmjBP-125" value="PrÃ©diction" style="rounded=1;whiteSpace=wrap;html=1;strokeColor=#0095db;strokeWidth=3;arcSize=15;fontFamily=Cascadia code;fontSource=https%3A%2F%2Ffonts.googleapis.com%2Fcss%3Ffamily%3DCascadia%2Bcode;fontSize=16;fontColor=#002058;fontStyle=0" vertex="1" parent="1">
          <mxGeometry x="-426.5" y="580" width="279" height="49" as="geometry" />
        </mxCell>
        <mxCell id="2D-d_SrLqzteHeUCmjBP-129" value="document.pdf" style="dashed=0;outlineConnect=0;html=1;align=center;labelPosition=center;verticalLabelPosition=bottom;verticalAlign=top;shape=mxgraph.webicons.adobe_pdf;fillColor=#F40C0C;gradientColor=#610603" vertex="1" parent="1">
          <mxGeometry x="-429" y="420.8" width="102.4" height="102.4" as="geometry" />
        </mxCell>
        <mxCell id="2D-d_SrLqzteHeUCmjBP-130" value="ou" style="text;html=1;align=center;verticalAlign=middle;resizable=0;points=[];autosize=1;strokeColor=none;fillColor=none;fontSize=16;" vertex="1" parent="1">
          <mxGeometry x="-307" y="457" width="40" height="30" as="geometry" />
        </mxCell>
      </root>
    </mxGraphModel>
  </diagram>
</mxfile>
